<?xml version="1.0" standalone="no"?>
<!DOCTYPE svg PUBLIC "-//W3C//DTD SVG 20010904//EN"
 "http://www.w3.org/TR/2001/REC-SVG-20010904/DTD/svg10.dtd">
<svg version="1.0" xmlns="http://www.w3.org/2000/svg"
 width="512.000000pt" height="512.000000pt" viewBox="0 0 512.000000 512.000000"
 preserveAspectRatio="xMidYMid meet">
<metadata>
Created by potrace 1.11, written by Peter Selinger 2001-2013
</metadata>
<g transform="translate(0.000000,512.000000) scale(0.100000,-0.100000)"
fill="#000000" stroke="none">
<path d="M1635 4332 c-60 -7 -222 -50 -290 -77 -248 -98 -462 -291 -600 -540
-38 -68 -78 -175 -99 -265 -10 -41 -21 -82 -24 -90 -12 -37 -12 -291 1 -372
l13 -87 -46 -12 c-25 -7 -47 -13 -50 -13 -18 -4 -150 -73 -172 -90 -14 -11
-35 -28 -46 -36 -117 -90 -224 -244 -267 -386 -136 -449 112 -900 565 -1027
70 -20 105 -21 530 -25 250 -2 451 0 446 5 -4 4 -62 64 -129 132 l-120 125
-306 1 c-297 2 -387 8 -375 26 3 5 -1 6 -9 4 -18 -8 -97 29 -154 71 -197 147
-271 391 -192 631 47 142 187 278 336 326 50 17 269 69 291 70 15 0 17 -12
-17 141 -47 207 -49 223 -49 320 -1 154 31 282 104 423 106 206 274 352 509
441 104 40 301 59 422 40 154 -23 344 -105 442 -192 81 -71 193 -196 177 -196
-3 0 3 -9 13 -19 22 -22 144 -261 133 -261 -4 0 -2 -4 3 -8 6 -4 18 -24 27
-44 l17 -37 108 61 c259 147 312 164 508 162 127 -1 218 -24 325 -81 188 -101
322 -279 365 -482 12 -62 17 -92 30 -216 11 -100 -6 -90 156 -91 207 -2 253
-10 366 -67 136 -70 259 -242 278 -393 7 -54 7 -162 0 -173 -2 -4 -7 -23 -10
-42 -8 -51 -80 -189 -121 -232 -77 -82 -179 -143 -282 -169 -30 -7 -159 -12
-350 -13 l-303 -1 -31 -35 c-17 -19 -74 -78 -127 -132 l-96 -97 455 3 c390 3
464 6 515 20 33 10 67 19 76 21 26 7 150 72 197 104 108 73 218 206 276 336
81 179 87 433 14 616 -81 202 -230 360 -423 446 -80 35 -195 63 -273 66 -71 2
-76 7 -86 76 -9 68 -42 166 -84 251 -138 277 -389 470 -697 535 -95 20 -326
16 -415 -8 -79 -21 -158 -49 -210 -76 -22 -11 -41 -20 -44 -20 -2 0 -23 33
-45 73 -53 93 -60 104 -96 146 -37 44 -176 183 -197 196 -8 6 -35 23 -59 40
-201 135 -394 196 -634 199 -77 1 -153 0 -170 -2z"/>
<path d="M2294 2957 c-40 -15 -77 -45 -95 -77 -11 -20 -14 -114 -14 -480 -1
-473 -2 -475 -44 -524 -40 -46 -62 -49 -323 -51 -265 -1 -278 -4 -278 -53 0
-28 29 -58 637 -665 167 -166 315 -307 330 -314 38 -16 87 -16 126 1 27 12
907 882 951 941 22 29 19 62 -6 76 -16 9 -96 13 -263 14 -253 2 -276 5 -316
51 -43 49 -43 50 -44 525 l-1 456 -24 36 c-49 71 -64 75 -350 75 -172 0 -265
-3 -286 -11z"/>
</g>
</svg>
